<svg xmlns="http://www.w3.org/2000/svg" viewBox="0 0 50.97 50"><defs><style>.cls-1{fill:#f1f2f2;}.cls-2,.cls-3,.cls-4{fill:#00aeef;}.cls-3{opacity:0.25;}.cls-4,.cls-6{opacity:0.5;}.cls-5,.cls-6{fill:none;stroke-miterlimit:10;}.cls-5{stroke:#00aeef;stroke-width:1.49px;}.cls-6{stroke:#fff;stroke-width:0.22px;}.cls-7,.cls-8{fill:#43bea9;}.cls-7{opacity:0.4;}.cls-9{fill:#fff;}</style></defs><title>Asset 41</title><g id="Layer_2" data-name="Layer 2"><g id="Layer_1-2" data-name="Layer 1"><circle class="cls-1" cx="25" cy="25" r="25"/><circle class="cls-2" cx="23.25" cy="12.11" r="3.67"/><circle class="cls-3" cx="18.51" cy="16.4" r="1.45"/><circle class="cls-4" cx="16.31" cy="12.11" r="2.2"/><path class="cls-3" d="M37.1,21H28.19a.47.47,0,0,0-.47.47v21a.48.48,0,0,0,.47.48H37.1a.48.48,0,0,0,.48-.48v-21A.47.47,0,0,0,37.1,21ZM32.65,42.54a1,1,0,1,1,1-1A1,1,0,0,1,32.65,42.54Z"/><rect class="cls-5" x="26.15" y="19.44" width="12.99" height="24.99" rx="1.6"/><line class="cls-6" x1="28.51" y1="39.79" x2="36.79" y2="39.79"/><rect class="cls-1" x="34.79" y="22.41" width="16.18" height="16.18"/><polygon class="cls-1" points="36.65 30.43 36.65 34.07 33.65 32.25 30.65 30.43 33.65 28.62 36.65 26.8 36.65 30.43"/><polygon class="cls-7" points="35.63 23.14 35.63 28.48 35.62 28.49 32.25 30.45 35.63 32.39 35.63 37.73 50.22 37.73 50.22 23.14 35.63 23.14"/><rect class="cls-8" x="38.23" y="25.47" width="7.49" height="2.1"/><rect class="cls-9" x="41" y="29.49" width="7.49" height="2.09"/><rect class="cls-8" x="38.23" y="33.52" width="7.49" height="2.1"/></g></g></svg>