<svg xmlns="http://www.w3.org/2000/svg" viewBox="0 0 51.6 52.95"><defs><style>.cls-1{fill:#f1f2f2;}.cls-2,.cls-3,.cls-4{fill:#00aeef;}.cls-3{opacity:0.25;}.cls-4{opacity:0.5;}.cls-5{fill:#43bea9;opacity:0.4;}.cls-6{fill:none;stroke:#00aeef;stroke-miterlimit:10;stroke-width:2.8px;}.cls-7{fill:#fff;}</style></defs><title>Asset 34</title><g id="Layer_2" data-name="Layer 2"><g id="Layer_1-2" data-name="Layer 1"><circle class="cls-1" cx="25" cy="25" r="25"/><circle class="cls-2" cx="23.25" cy="12.11" r="3.67"/><circle class="cls-3" cx="18.51" cy="16.4" r="1.45"/><circle class="cls-4" cx="16.31" cy="12.11" r="2.2"/><path class="cls-2" d="M48.61,41c.47,1.61,2,4.72,2.63,4.48s.27-3.71-.19-5.32-1.38-2.72-2-2.49S48.14,39.35,48.61,41Z"/><path class="cls-5" d="M45,39.08l2.64,1.13a7.08,7.08,0,0,0,.16.8A20,20,0,0,0,48.9,44.1l-2.09,1.21A35.22,35.22,0,0,0,45,39.08Z"/><path class="cls-2" d="M33.39,47.19c-.52.49,0,1.83,1.23,3s4.05,3.16,4.58,2.68-1.49-3.25-2.69-4.43S33.91,46.71,33.39,47.19Z"/><path class="cls-5" d="M41.19,48.91l-2.06,1.27A19.57,19.57,0,0,0,37,47.73a6.21,6.21,0,0,0-.63-.52l.26-2.86A34.85,34.85,0,0,0,41.19,48.91Z"/><path class="cls-6" d="M30.05,24.58c-1.7,1.06-.7,5.73,2.25,10.42.29.45.61,1,1,1.46l6.08-3.82c-.3-.54-.6-1.06-.88-1.5C35.51,26.44,31.75,23.5,30.05,24.58Z"/><path class="cls-2" d="M30.3,24.85l-.85.51a.51.51,0,0,1-.73-.25l-1.49-3.85-.66-1.69a.5.5,0,0,1,.85-.5l1.17,1.37,2.68,3.14a.51.51,0,0,1-.12.77Z"/><path class="cls-5" d="M41.42,33.49l-.7-1.34-8.47,5.31.9,1.22c2.73,3.69,7.29,9.29,10.33,10.06a2.08,2.08,0,0,0,1.64-.18C47.89,46.81,44,38.36,41.42,33.49Z"/><path class="cls-2" d="M30.93,28.81a9,9,0,0,1,.71,3,2.53,2.53,0,0,0,4.27,1.77,1.09,1.09,0,0,1-1,.31c-.42,0-.48,0-.17.07l.66-4.91a5.08,5.08,0,0,0-3.78,1.44L35.83,33A5.44,5.44,0,0,0,32.06,26a2.5,2.5,0,0,0-1.33,4.82c.26.07.19,0,0-.05,0,0,.56.28.26.14s.1.21,0,0,.14.25.15.26c-.11-.15-.14-.29,0,0s0,.17,0-.06c0,.09-.08.6,0,.27s-.11.26-.12.26a2.53,2.53,0,0,0,1.15,2.83,2.59,2.59,0,0,0,3-.39c-.34.31.37-.22-.06,0l.24,0c-.25,0-.23.06.07.06a2.5,2.5,0,0,0,2.46-2.17,2.55,2.55,0,0,0-1.79-2.74,3.54,3.54,0,0,0-3.73.91l4.27,1.76a13.35,13.35,0,0,0-.89-4.37,2.59,2.59,0,0,0-3.08-1.75,2.52,2.52,0,0,0-1.74,3.08Z"/><circle class="cls-7" cx="31.17" cy="26.3" r="1.07"/><circle class="cls-7" cx="33.27" cy="29.82" r="1.81"/></g></g></svg>