<svg xmlns="http://www.w3.org/2000/svg" viewBox="0 0 58.23 50.26"><defs><style>.cls-1{fill:#f1f2f2;}.cls-2,.cls-8{fill:#fff;}.cls-2,.cls-3{stroke:#00aeef;stroke-miterlimit:10;stroke-width:2.6px;}.cls-3{fill:none;}.cls-4,.cls-5,.cls-6{fill:#00aeef;}.cls-5{opacity:0.25;}.cls-6,.cls-7{opacity:0.5;}.cls-7{fill:#43bea9;}</style></defs><title>Asset 32</title><g id="Layer_2" data-name="Layer 2"><g id="Layer_1-2" data-name="Layer 1"><circle class="cls-1" cx="25" cy="25" r="25"/><rect class="cls-2" x="22.55" y="21.71" width="34.38" height="18.85" rx="2.45"/><line class="cls-3" x1="39.74" y1="40.56" x2="39.74" y2="48.96"/><line class="cls-3" x1="32.13" y1="48.96" x2="47.35" y2="48.96"/><circle class="cls-4" cx="16.51" cy="18.24" r="3.67"/><circle class="cls-5" cx="22" cy="13.02" r="1.45"/><circle class="cls-6" cx="16.51" cy="10.18" r="2.2"/><rect class="cls-5" x="25.98" y="24.57" width="27.75" height="4.87" rx="0.96"/><rect class="cls-7" x="42.79" y="29.95" width="10.93" height="7.7" rx="1.04"/><rect class="cls-5" x="25.98" y="29.95" width="16.27" height="7.7" rx="0.86"/><rect class="cls-8" x="27.72" y="31.44" width="12.78" height="1.06"/><rect class="cls-8" x="27.72" y="33.27" width="12.78" height="1.06"/><rect class="cls-8" x="27.72" y="35.09" width="8.85" height="1.06"/><rect class="cls-8" x="37.71" y="35.09" width="2.8" height="1.06"/><ellipse class="cls-8" cx="39.85" cy="40.56" rx="0.88" ry="0.85"/></g></g></svg>