<svg xmlns="http://www.w3.org/2000/svg" viewBox="0 0 50 51.48"><defs><style>.cls-1{fill:#f1f2f2;}.cls-2{fill:#fff;}.cls-3,.cls-4,.cls-5{fill:#00aeef;}.cls-3{opacity:0.25;}.cls-5{opacity:0.5;}.cls-6{fill:#ffde17;opacity:0.2;}.cls-7{opacity:0.4;}.cls-8{fill:#43bea9;}</style></defs><title>Asset 37</title><g id="Layer_2" data-name="Layer 2"><g id="Layer_1-2" data-name="Layer 1"><circle class="cls-1" cx="25" cy="25" r="25"/><rect class="cls-2" x="28.1" y="17.92" width="20.48" height="28.47" rx="3"/><rect class="cls-3" x="30.17" y="20.04" width="16.34" height="24.23" rx="0.96"/><circle class="cls-4" cx="23.25" cy="12.11" r="3.67"/><circle class="cls-3" cx="18.51" cy="16.4" r="1.45"/><circle class="cls-5" cx="16.31" cy="12.11" r="2.2"/><rect class="cls-4" x="32.58" y="22.19" width="11.65" height="0.97"/><rect class="cls-2" x="32.58" y="24.02" width="11.65" height="0.97"/><rect class="cls-2" x="32.58" y="25.85" width="8.07" height="0.97"/><rect class="cls-4" x="42.23" y="25.85" width="2" height="0.97"/><rect class="cls-2" x="32.51" y="27.68" width="11.65" height="0.97" transform="translate(76.68 56.33) rotate(-180)"/><rect class="cls-4" x="32.51" y="29.51" width="11.65" height="0.97" transform="translate(76.68 59.99) rotate(-180)"/><rect class="cls-2" x="36.1" y="31.34" width="8.07" height="0.97" transform="translate(80.27 63.65) rotate(-180)"/><rect class="cls-2" x="32.51" y="31.34" width="1.75" height="0.97" transform="translate(66.78 63.65) rotate(-180)"/><circle class="cls-6" cx="32.8" cy="41.61" r="3.51"/><circle class="cls-1" cx="32.8" cy="41.61" r="7.66"/><path class="cls-4" d="M45.58,16.73H31.1a4.19,4.19,0,0,0-4.18,4.19V36.41a7,7,0,0,1,2.37-1.78V20.92A1.82,1.82,0,0,1,31.1,19.1H45.58a1.82,1.82,0,0,1,1.81,1.82V43.39a1.81,1.81,0,0,1-1.81,1.81h-6a7.33,7.33,0,0,1-.75,1.15l.56,1.22h6.21a4.18,4.18,0,0,0,4.18-4.18V20.92A4.19,4.19,0,0,0,45.58,16.73Z"/><g class="cls-7"><path class="cls-8" d="M40,49.06l-1.78-3.8A6.57,6.57,0,0,1,33.93,48l1.48,3.18a.5.5,0,0,0,.93,0l.76-2.09.16-.07,2.09.76a.51.51,0,0,0,.63-.69Z"/><path class="cls-8" d="M32.8,36a5.54,5.54,0,1,0,5.54,5.54A5.55,5.55,0,0,0,32.8,36Zm2.7,5.14-1,1,.23,1.36A.51.51,0,0,1,34,44l-1.22-.64L31.59,44a.5.5,0,0,1-.73-.53l.23-1.36-1-1a.5.5,0,0,1,.28-.86l1.36-.2.6-1.23a.51.51,0,0,1,.91,0l.6,1.23,1.36.2a.5.5,0,0,1,.28.86Z"/><path class="cls-8" d="M27.4,45.26l-1.77,3.8a.51.51,0,0,0,.63.69L28.35,49l.16.07.76,2.09a.5.5,0,0,0,.93,0L31.68,48a6.59,6.59,0,0,1-4.28-2.75Z"/></g></g></g></svg>