<svg xmlns="http://www.w3.org/2000/svg" viewBox="0 0 52.83 50"><defs><style>.cls-1{fill:#f1f2f2;}.cls-2{fill:#fff;}.cls-3,.cls-4,.cls-5,.cls-6,.cls-7{fill:#00aeef;}.cls-4{stroke:#231f20;stroke-width:0.02px;}.cls-4,.cls-6,.cls-7{stroke-miterlimit:10;}.cls-4,.cls-7{opacity:0.25;}.cls-5{opacity:0.5;}.cls-6,.cls-7{stroke:#fff;}.cls-6{stroke-width:1.32px;}.cls-7{stroke-width:1.22px;}</style></defs><title>icn-hos-1_3</title><g id="Layer_2" data-name="Layer 2"><g id="Layer_1-2" data-name="Layer 1"><circle class="cls-1" cx="25" cy="25" r="25"/><path class="cls-1" d="M43.38,29.94a6.11,6.11,0,0,0-.86.07A5.29,5.29,0,0,0,32,30a4.73,4.73,0,0,0-.93-.09,5.29,5.29,0,1,0,4.41,8.19,4.63,4.63,0,0,0,3.64.2,5.28,5.28,0,1,0,4.29-8.36Z"/><path class="cls-2" d="M44.37,27.09a8,8,0,0,0-15.31,0,8,8,0,1,0,3.13,15.57,5.71,5.71,0,0,1,4-6.46,5.57,5.57,0,0,1,4.87.94,5.8,5.8,0,0,1,6.1,2.67,7,7,0,0,1,.7,1.85,8,8,0,0,0-3.48-14.57Z"/><path class="cls-3" d="M45.43,25.85a9.37,9.37,0,0,0-17.42,0,9.37,9.37,0,0,0,2,18.54A9.17,9.17,0,0,0,32.49,44c-.09-.3-.17-.61-.24-.92a6.52,6.52,0,0,1-.11-1.91,6.5,6.5,0,0,1-2.16.38,6.57,6.57,0,0,1-.76-13.1l.93-.1.26-.9a6.57,6.57,0,0,1,12.62,0l.26.9.92.1a6.56,6.56,0,0,1,3.15,11.8A6.44,6.44,0,0,1,48,43.19a9.37,9.37,0,0,0-2.59-17.34Z"/><circle class="cls-3" cx="24.88" cy="15.28" r="3.67"/><circle class="cls-4" cx="18.31" cy="14.81" r="1.45"/><circle class="cls-5" cx="19.02" cy="20.78" r="2.2"/><circle class="cls-2" cx="46.78" cy="46.85" r="0.88"/><rect class="cls-6" x="27.18" y="42.29" width="21.37" height="4.56" rx="2.28"/><path class="cls-7" d="M43.38,29.12a5.83,5.83,0,0,0-.84.09,5.83,5.83,0,0,0-11.65,0,6.13,6.13,0,0,0-.95-.1,5.84,5.84,0,1,0,5.82,5.94,6.11,6.11,0,0,0,1,.09,5.83,5.83,0,0,0,.84-.08,5.84,5.84,0,1,0,5.83-5.95Z"/><rect class="cls-6" x="27.18" y="32.53" width="21.37" height="4.56" rx="2.28"/><rect class="cls-6" x="27.18" y="37.46" width="21.37" height="4.56" rx="2.28"/><circle class="cls-2" cx="46.27" cy="39.74" r="1.09"/><circle class="cls-2" cx="46.27" cy="34.81" r="1.09"/><circle class="cls-2" cx="46.05" cy="44.57" r="1.09"/></g></g></svg>