<?xml version="1.0" encoding="utf-8"?>
<!-- Generator: Adobe Illustrator 24.0.3, SVG Export Plug-In . SVG Version: 6.00 Build 0)  -->
<svg version="1.1" id="Layer_1" xmlns="http://www.w3.org/2000/svg" xmlns:xlink="http://www.w3.org/1999/xlink" x="0px" y="0px"
	 viewBox="0 0 2210 600" style="enable-background:new 0 0 2210 600;" xml:space="preserve">
<style type="text/css">
	.st0{fill:#FFFFFF;stroke:#000000;stroke-width:1.5;stroke-linecap:round;stroke-linejoin:round;}
	.st1{fill:#E7FCFB;}
	.st2{fill:none;stroke:#000000;stroke-width:1.5;stroke-linecap:round;stroke-linejoin:round;}
	.st3{fill:none;stroke:#E7FCFB;stroke-width:2;stroke-miterlimit:10;}
	.st4{fill:none;stroke:#1E1E1E;stroke-width:1.5;stroke-linecap:round;stroke-linejoin:round;}
	.st5{fill:none;stroke:#FFFFFF;stroke-width:2;stroke-linecap:round;stroke-linejoin:round;}
	.st6{fill:none;stroke:#FFFFFF;stroke-width:1.5;stroke-linecap:round;stroke-linejoin:round;}
	.st7{fill:#FFFFFF;stroke:#1E1E1E;stroke-width:1.5;stroke-linecap:round;stroke-linejoin:round;}
	.st8{fill:none;stroke:#000000;stroke-width:1.5;stroke-miterlimit:10;}
	.st9{fill:none;stroke:#FFFFFF;stroke-width:1.5;stroke-miterlimit:10;}
</style>
<title>hero-1</title>
<path class="st0" d="M1684.9,423.6h56.7c3.3,0,5.9,2.7,5.9,5.9v114.6c0,3.3-2.7,5.9-5.9,5.9h-56.7c-3.3,0-5.9-2.7-5.9-5.9V429.5
	C1679,426.3,1681.6,423.6,1684.9,423.6z"/>
<path class="st1" d="M1687.4,428.9h51.4c1.8,0,3.3,1.5,3.3,3.3v110.1c0,1.7-1.3,3-3,3h-51.7c-1.7,0-3-1.3-3-3V431.9
	C1684.4,430.2,1685.7,428.9,1687.4,428.9L1687.4,428.9z"/>
<line class="st2" x1="216.2" y1="517.1" x2="216.2" y2="547.9"/>
<line class="st2" x1="171.9" y1="548.7" x2="260.6" y2="548.7"/>
<line class="st3" x1="1282.4" y1="566.5" x2="2035.3" y2="566.5"/>
<line class="st3" x1="2054.3" y1="566.5" x2="2104.1" y2="566.5"/>
<line class="st3" x1="2160.2" y1="566.5" x2="2210" y2="566.5"/>
<line class="st3" x1="1200" y1="566.5" x2="1249.8" y2="566.5"/>
<line class="st3" x1="82.6" y1="566.5" x2="946.5" y2="566.5"/>
<line class="st3" x1="968.3" y1="566.5" x2="1025.5" y2="566.5"/>
<line class="st3" x1="1089.8" y1="566.5" x2="1147" y2="566.5"/>
<line class="st3" x1="-12" y1="566.5" x2="45.2" y2="566.5"/>
<path class="st4" d="M1798.9,411.5h210.5c3.2,0,5.8,2.6,5.8,5.8v0v122.1l0,0h-222.1l0,0V417.3
	C1793.1,414.1,1795.7,411.5,1798.9,411.5L1798.9,411.5z"/>
<rect x="1804.5" y="422.9" class="st1" width="199.2" height="105"/>
<rect x="1804.5" y="422.9" class="st1" width="199.2" height="105"/>
<path class="st5" d="M1898.2,494.5L1898.2,494.5c-3.3,0-5.9-2.6-5.9-5.9v0V481l-6.3-3l6.3-2.9v-7.6c0-3.3,2.6-5.9,5.9-5.9l0,0l0,0"
	/>
<path class="st5" d="M1911.8,494.5L1911.8,494.5c3.2,0,5.9-2.6,5.9-5.9V481l6.3-3l-6.3-2.9v-7.6c0-3.2-2.6-5.9-5.9-5.9l0,0"/>
<line class="st5" x1="1882.1" y1="494.5" x2="1861.3" y2="494.5"/>
<line class="st6" x1="1734" y1="487.6" x2="1693.3" y2="487.6"/>
<line class="st6" x1="1734" y1="494.5" x2="1693.3" y2="494.5"/>
<line class="st6" x1="1734" y1="501.4" x2="1693.3" y2="501.4"/>
<line class="st6" x1="1734" y1="508.2" x2="1693.3" y2="508.2"/>
<line class="st6" x1="1734" y1="446.5" x2="1712" y2="446.5"/>
<line class="st6" x1="1734" y1="453.3" x2="1712" y2="453.3"/>
<line class="st6" x1="1734" y1="460.2" x2="1712" y2="460.2"/>
<line class="st6" x1="1734" y1="467.1" x2="1712" y2="467.1"/>
<line class="st6" x1="1734" y1="473.9" x2="1693.3" y2="473.9"/>
<line class="st6" x1="1734" y1="480.8" x2="1693.3" y2="480.8"/>
<line class="st5" x1="1927.6" y1="494.5" x2="1949" y2="461.5"/>
<path class="st7" d="M1768.3,537.9H2040l0,0l0,0c0,6.7-5.4,12.1-12.1,12.1h-247.6C1773.7,550,1768.3,544.6,1768.3,537.9
	L1768.3,537.9L1768.3,537.9z"/>
<rect x="1875.4" y="539.4" class="st1" width="57.5" height="5.6"/>
<circle class="st1" cx="1904.1" cy="417.4" r="1.8"/>
<circle class="st2" cx="1713.2" cy="532.8" r="5.4"/>
<path class="st1" d="M1519.7,505.6h29.1c1.2,0,2.3,1,2.3,2.3c0,0,0,0,0,0v20.6c0,1.2-1,2.2-2.2,2.2l0,0h-29.2c-1.2,0-2.2-1-2.2-2.1
	v0v-20.7C1517.5,506.6,1518.5,505.6,1519.7,505.6L1519.7,505.6z"/>
<path class="st2" d="M1489.5,537.5v-11l0,0l0,0l6.6-15.1c0.5-1.3,2-2.8,3.5-2.8h10.4"/>
<path class="st2" d="M1509.9,537.5v-35.4c0-2.4,2-4.4,4.4-4.4l0,0h41.2c2.4,0,4.4,2,4.4,4.4c0,0,0,0,0,0v35.4"/>
<path class="st2" d="M1505.5,526.3h-11.4l5.9-13.4c0.1-0.2,0.2-0.4,0.3-0.5h5.3V526.3z"/>
<circle class="st2" cx="1545.4" cy="541.4" r="8.6"/>
<circle class="st2" cx="1545.4" cy="541.4" r="2.6"/>
<circle class="st2" cx="1499.7" cy="541.4" r="8.6"/>
<circle class="st2" cx="1499.7" cy="541.4" r="2.6"/>
<line class="st2" x1="1507.5" y1="537.5" x2="1537.6" y2="537.5"/>
<path class="st2" d="M1491,541.9h-2.4c-1.2,0.1-2.3-0.8-2.4-2.1s0.8-2.3,2.1-2.4c0.1,0,0.2,0,0.3,0h3.2"/>
<line class="st2" x1="1536.7" y1="541.9" x2="1508.5" y2="541.9"/>
<path class="st2" d="M1553.3,537.5h6.6v2.2c0,1.2-1,2.2-2.2,2.2c0,0,0,0,0,0h-3.6"/>
<line class="st2" x1="1414.2" y1="487.2" x2="1414.2" y2="550"/>
<polyline class="st2" points="1427.4,503.7 1414.2,516.8 1397.8,500.5 "/>
<polyline class="st2" points="1421.7,497.5 1414.2,504.9 1405.2,495.9 "/>
<polyline class="st2" points="1418.2,490.1 1414.2,494.1 1410.2,490.1 "/>
<path class="st2" d="M1421,475.5c-6.5-3.9-14.9-1.9-18.8,4.6c-0.5,0.8-0.9,1.6-1.2,2.5c-5-2.3-11-0.1-13.3,4.9
	c-0.6,1.3-0.9,2.7-0.9,4.1c0,1.8,0.5,3.6,1.5,5.2c-4.8,2.6-6.6,8.7-4,13.5c1.5,2.8,4.3,4.7,7.5,5.1"/>
<path class="st2" d="M1391.8,515.5c1.5,7.4,8.8,12.2,16.2,10.6c2.3-0.5,4.4-1.5,6.2-3"/>
<path class="st2" d="M1406.8,475.5c6.5-3.9,14.9-1.9,18.8,4.6c0.5,0.8,0.9,1.6,1.2,2.5c5-2.3,11-0.1,13.3,4.9
	c0.6,1.3,0.9,2.7,0.9,4.1c0,1.8-0.5,3.6-1.5,5.2c4.8,2.6,6.6,8.7,4,13.5c-1.5,2.8-4.3,4.7-7.5,5.1"/>
<path class="st2" d="M1436,515.5c-1.5,7.4-8.8,12.2-16.2,10.6c-2.3-0.5-4.4-1.5-6.2-3"/>
<path class="st2" d="M323.1,359.7H109.3c-6,0-10.9,5.5-10.9,12.4v137.3c0,4.2,3.4,7.6,7.6,7.6h219.2c4.8,0,8.7-3.9,8.7-8.7
	c0,0,0,0,0,0V372.1C334,365.3,329.1,359.7,323.1,359.7z"/>
<circle class="st8" cx="216.2" cy="507.6" r="5"/>
<line class="st2" x1="99.5" y1="497.2" x2="333" y2="497.2"/>
<path class="st1" d="M115.3,367.9h201.8c5,0,9,4.1,9,9v105.7c0,5-4.1,9-9,9H115.3c-5,0-9.1-4.1-9.1-9V377
	C106.3,372,110.3,367.9,115.3,367.9z"/>
<rect x="150" y="387" class="st9" width="29" height="43"/>
<rect x="259" y="435.5" class="st9" width="29" height="43"/>
<rect x="184" y="387" class="st9" width="104" height="43"/>
<rect x="150" y="435.5" class="st9" width="104" height="43"/>
</svg>
