<svg id="Layer_1" data-name="Layer 1" xmlns="http://www.w3.org/2000/svg" viewBox="0 0 2210 600"><defs><style>.cls-1,.cls-8{fill:#fff;}.cls-1,.cls-3,.cls-9{stroke:#000;}.cls-1,.cls-3,.cls-5,.cls-6,.cls-7,.cls-8{stroke-linecap:round;stroke-linejoin:round;}.cls-1,.cls-10,.cls-3,.cls-5,.cls-7,.cls-8,.cls-9{stroke-width:1.5px;}.cls-2{fill:#e7fcfb;}.cls-10,.cls-3,.cls-4,.cls-5,.cls-6,.cls-7,.cls-9{fill:none;}.cls-4{stroke:#e7fcfb;}.cls-10,.cls-4,.cls-9{stroke-miterlimit:10;}.cls-4,.cls-6{stroke-width:2px;}.cls-5,.cls-8{stroke:#1e1e1e;}.cls-10,.cls-6,.cls-7{stroke:#fff;}</style></defs><title>hero-1</title><rect class="cls-1" x="1608.96" y="423.6" width="68.58" height="126.4" rx="5.92"/><path class="cls-2" d="M1617.38,428.85h51.42a3.33,3.33,0,0,1,3.33,3.33V542.32a3,3,0,0,1-3,3h-51.74a3,3,0,0,1-3-3V431.86A3,3,0,0,1,1617.38,428.85Z"/><line class="cls-3" x1="306.23" y1="517.06" x2="306.23" y2="547.92"/><line class="cls-3" x1="261.85" y1="548.73" x2="350.6" y2="548.73"/><line class="cls-4" x1="1282.36" y1="566.5" x2="2035.31" y2="566.5"/><line class="cls-4" x1="2054.3" y1="566.5" x2="2104.1" y2="566.5"/><line class="cls-4" x1="2160.2" y1="566.5" x2="2210" y2="566.5"/><line class="cls-4" x1="1199.96" y1="566.5" x2="1249.76" y2="566.5"/><line class="cls-4" x1="82.56" y1="566.5" x2="946.55" y2="566.5"/><line class="cls-4" x1="968.34" y1="566.5" x2="1025.49" y2="566.5"/><line class="cls-4" x1="1089.85" y1="566.5" x2="1147" y2="566.5"/><line class="cls-4" x1="-12" y1="566.5" x2="45.15" y2="566.5"/><path class="cls-5" d="M1728.91,411.51h210.46a5.8,5.8,0,0,1,5.8,5.8V539.38a0,0,0,0,1,0,0H1723.11a0,0,0,0,1,0,0V417.31A5.8,5.8,0,0,1,1728.91,411.51Z"/><rect class="cls-2" x="1734.53" y="422.93" width="199.22" height="105.03"/><rect class="cls-2" x="1734.53" y="422.93" width="199.22" height="105.03"/><path class="cls-6" d="M1828.16,494.48h0a5.89,5.89,0,0,1-5.89-5.89V481l-6.3-2.95,6.3-2.94v-7.56a5.89,5.89,0,0,1,5.89-5.89h0"/><path class="cls-6" d="M1841.83,494.48h0a5.89,5.89,0,0,0,5.88-5.89V481l6.3-2.95-6.3-2.94v-7.56a5.89,5.89,0,0,0-5.88-5.89h0"/><line class="cls-6" x1="1812.12" y1="494.48" x2="1791.29" y2="494.48"/><line class="cls-7" x1="1664" y1="487.63" x2="1623.29" y2="487.63"/><line class="cls-7" x1="1664" y1="494.49" x2="1623.29" y2="494.49"/><line class="cls-7" x1="1664" y1="501.35" x2="1623.29" y2="501.35"/><line class="cls-7" x1="1664" y1="508.21" x2="1623.29" y2="508.21"/><line class="cls-7" x1="1664" y1="446.48" x2="1642" y2="446.48"/><line class="cls-7" x1="1664" y1="453.34" x2="1642" y2="453.34"/><line class="cls-7" x1="1664" y1="460.2" x2="1642" y2="460.2"/><line class="cls-7" x1="1664" y1="467.05" x2="1642" y2="467.05"/><line class="cls-7" x1="1664" y1="473.91" x2="1623.29" y2="473.91"/><line class="cls-7" x1="1664" y1="480.77" x2="1623.29" y2="480.77"/><line class="cls-6" x1="1857.55" y1="494.48" x2="1879" y2="461.52"/><path class="cls-8" d="M1698.28,537.94H1970a0,0,0,0,1,0,0v0A12.07,12.07,0,0,1,1957.93,550H1710.35a12.07,12.07,0,0,1-12.07-12.07v0A0,0,0,0,1,1698.28,537.94Z"/><rect class="cls-2" x="1805.41" y="539.38" width="57.46" height="5.6"/><circle class="cls-2" cx="1834.14" cy="417.35" r="1.8"/><circle class="cls-3" cx="1643.25" cy="532.83" r="5.39"/><path class="cls-2" d="M1449.66,505.59h29.08a2.26,2.26,0,0,1,2.26,2.26v20.62a2.15,2.15,0,0,1-2.15,2.15h-29.19a2.15,2.15,0,0,1-2.15-2.15V507.74a2.15,2.15,0,0,1,2.15-2.15Z"/><path class="cls-3" d="M1419.54,537.51v-11h0v0l6.63-15.09c.53-1.28,2-2.75,3.47-2.75H1440"/><path class="cls-3" d="M1439.93,537.51V502.07a4.41,4.41,0,0,1,4.41-4.41h41.16a4.4,4.4,0,0,1,4.41,4.41v35.44"/><path class="cls-3" d="M1435.52,526.32h-11.43l5.9-13.42a4.53,4.53,0,0,1,.27-.54h5.26Z"/><circle class="cls-3" cx="1475.4" cy="541.37" r="8.63"/><circle class="cls-3" cx="1475.4" cy="541.37" r="2.59"/><circle class="cls-3" cx="1429.66" cy="541.37" r="8.63"/><circle class="cls-3" cx="1429.66" cy="541.37" r="2.59"/><line class="cls-3" x1="1437.46" y1="537.51" x2="1467.62" y2="537.51"/><path class="cls-3" d="M1421,541.92h-2.41a2.21,2.21,0,1,1,0-4.41h3.22"/><line class="cls-3" x1="1466.73" y1="541.92" x2="1438.48" y2="541.92"/><path class="cls-3" d="M1483.3,537.51h6.61v2.2a2.2,2.2,0,0,1-2.2,2.21h-3.57"/><line class="cls-3" x1="1344.17" y1="487.16" x2="1344.17" y2="550"/><polyline class="cls-3" points="1357.39 503.68 1344.22 516.85 1327.85 500.49"/><polyline class="cls-3" points="1351.73 497.51 1344.22 504.88 1335.19 495.85"/><polyline class="cls-3" points="1348.21 490.06 1344.22 494.06 1340.22 490.06"/><path class="cls-3" d="M1351,475.54a13.69,13.69,0,0,0-20,7.14,10,10,0,0,0-14.18,9,9.83,9.83,0,0,0,1.46,5.18,9.95,9.95,0,0,0,3.57,18.61"/><path class="cls-3" d="M1321.83,515.48a13.68,13.68,0,0,0,22.33,7.6"/><path class="cls-3" d="M1336.79,475.54a13.69,13.69,0,0,1,20,7.14,10,10,0,0,1,14.18,9,9.83,9.83,0,0,1-1.46,5.18,9.95,9.95,0,0,1-3.57,18.61"/><path class="cls-3" d="M1366,515.48a13.68,13.68,0,0,1-22.33,7.6"/><path class="cls-3" d="M413.13,359.73H199.32c-6,0-10.89,5.54-10.89,12.37V509.44a7.62,7.62,0,0,0,7.62,7.62H415.29a8.73,8.73,0,0,0,8.73-8.74V372.1C424,365.27,419.15,359.73,413.13,359.73Z"/><circle class="cls-9" cx="306.23" cy="507.56" r="4.98"/><line class="cls-3" x1="189.49" y1="497.15" x2="422.96" y2="497.15"/><rect class="cls-2" x="196.27" y="367.92" width="219.9" height="123.8" rx="9.05"/><rect class="cls-10" x="240" y="387" width="29" height="43"/><rect class="cls-10" x="349" y="435.5" width="29" height="43"/><rect class="cls-10" x="274" y="387" width="104" height="43"/><rect class="cls-10" x="240" y="435.5" width="104" height="43"/></svg>