<svg id="Layer_1" data-name="Layer 1" xmlns="http://www.w3.org/2000/svg" viewBox="0 0 3067.94 626.04"><defs><style>.cls-1,.cls-3{fill:none;}.cls-1,.cls-2,.cls-3{stroke:#fff;stroke-miterlimit:10;}.cls-1{stroke-width:2.18px;}.cls-2{fill:#fff;}.cls-3{stroke-width:1.7px;}</style></defs><title>rocket-hero-light</title><path class="cls-1" d="M2114.06,367.73c7.63,16,18.55,51.12,12.73,53.9s-26.21-27.73-33.83-43.84-9.19-31.37-3.37-34.15S2106.33,351.6,2114.06,367.73Z"/><path class="cls-1" d="M2129.5,331.36l-14.07,27.37c1.52,2.42,2.83,5,4.14,7.63a222.61,222.61,0,0,1,11.78,33l25.38-4.22C2147.41,379,2138.08,356.17,2129.5,331.36Z"/><path class="cls-1" d="M2231.42,352.4c-2.62,17.65-2.95,54.33,3.5,55.21s17-34.23,19.61-51.79-.38-32.62-6.72-33.59S2234,334.73,2231.42,352.4Z"/><path class="cls-1" d="M2206,322.13l21.42,22a80.82,80.82,0,0,0-1.74,8.49,215.2,215.2,0,0,0-1.61,35L2198.55,391C2202.81,373,2205.14,348.44,2206,322.13Z"/><path class="cls-1" d="M2111.45,253.4c17.24,70,50,160.66,70.1,157.25s21.67-99.66,15.2-171.54Z"/><path class="cls-1" d="M2126.3,81.23c-24.57,4.08-35.33,62.34-23.95,130.18,1.12,6.5,2.49,13.72,4.13,21.27l87.94-14.7c-.93-7.69-1.89-15-3-21.38C2180,128.66,2150.88,77.05,2126.3,81.23Z"/><path class="cls-1" d="M2143.24,182.17a10.66,10.66,0,1,1,8.74-12.28h0A10.68,10.68,0,0,1,2143.24,182.17Z"/><path class="cls-1" d="M2136.32,143.15A15.33,15.33,0,1,1,2149,125.54h0A15.46,15.46,0,0,1,2136.32,143.15Z"/><path class="cls-1" d="M2135.26,137.25a9.42,9.42,0,1,1,7.73-10.86h0A9.55,9.55,0,0,1,2135.26,137.25Z"/><path class="cls-1" d="M2142.41,177.1a5.46,5.46,0,1,1,4.48-6.29h0A5.55,5.55,0,0,1,2142.41,177.1Z"/><polygon class="cls-1" points="2195.95 233.63 2110.55 247.93 2108.95 242.5 2107.36 236.96 2194.88 222.43 2195.95 233.63"/><path class="cls-2" d="M2178.82,438.42l-.37-.11a172.61,172.61,0,0,1-28.75,55.27l2.4,1.8a177.36,177.36,0,0,0,29.35-56.74A9.85,9.85,0,0,1,2178.82,438.42Z"/><path class="cls-3" d="M2128.64,76.85a5.7,5.7,0,0,1,1.29.18c-8.05-43.38-16-76.63-18.56-76.18s1.58,34.56,9,78.1A14.21,14.21,0,0,1,2128.64,76.85Z"/><path class="cls-2" d="M2214.48,469.8l.21.25a68.23,68.23,0,0,1,5.38,6.36,69.58,69.58,0,0,0,5.57,6.59c32.71,36,80.83,55.47,129.12,55.47a171,171,0,0,0,71.14-15.23l.09.14a126.56,126.56,0,0,1,142.3,17.2l1.4,1.2.9-1.6a144.32,144.32,0,0,1,217-40.7l1.1.9,1-1.1a155.66,155.66,0,0,1,118.9-55.1c85.9,0,155.8,69.9,155.8,155.8a156,156,0,0,1-2.11,25.55h3.12a159.23,159.23,0,0,0,2-25.4c0-87.6-71.3-158.9-158.9-158.9a158.5,158.5,0,0,0-120.2,55.1,147.46,147.46,0,0,0-219.5,40.9,129.45,129.45,0,0,0-143.12-17.06v-.1c-66.06,30.81-149.27,14.39-197.91-39.1a68.23,68.23,0,0,1-5.38-6.36,71.56,71.56,0,0,0-5.51-6.52c-2.16-3.39-4.42-6.6-6.61-9.71-4.93-7-9.59-13.62-12.56-21.38l-2.8,1.07c3.1,8.11,7.87,14.88,12.91,22C2210.06,463.19,2212.33,466.42,2214.48,469.8Z"/><path class="cls-2" d="M3.08,625.54a237.22,237.22,0,0,1,32.76-73c73.06-109,220.67-138.17,329.69-65.1A237.63,237.63,0,0,1,437,562.63l1,1.7,1.4-1.4c72.06-72.57,189.3-73,261.87-.92q5.67,5.63,10.83,11.73l1.6,1.8,1-2.2C755,479.33,863.86,435.77,957.86,476a185.17,185.17,0,0,1,104.07,115.79l.6,2,1.7-1.2a145.83,145.83,0,0,1,182.8,12l1.8,1.6.7-2.3a147.68,147.68,0,0,1,51.9-74.3,145.91,145.91,0,0,1,226,70.1l1,3,1.7-2.7a145.83,145.83,0,0,1,201-46.31q4.47,2.8,8.73,5.91l1.1.8.9-1A128.9,128.9,0,0,1,1913,541.87v-.14a176.2,176.2,0,0,0,94.53,27.5,179.67,179.67,0,0,0,29.13-2.39A176.83,176.83,0,0,0,2152.34,495l-2.44-1.75A174.67,174.67,0,0,1,1913,538.16v-.09a132,132,0,0,0-172.48,18.36,148.92,148.92,0,0,0-207.76,34.48q-1.77,2.47-3.44,5a148.92,148.92,0,0,0-281.9,4.9,148.9,148.9,0,0,0-183.2-11.8,189.57,189.57,0,0,0-66.4-93.3c-32.4-25-71.4-38-112.5-38a187.89,187.89,0,0,0-172,111.9c-68.24-78.44-187.14-86.72-265.58-18.48q-4.43,3.86-8.62,8A240.23,240.23,0,0,0,233.84,444C121.37,444,26.95,521.24.64,625.54Z"/></svg>